<svg xmlns="http://www.w3.org/2000/svg" viewBox="0 0 574 574"><rect width="574" height="574" fill="#232f3f"/><path d="M450.14,365.42C406,398,341.78,415.37,286.59,415.37c-77.34,0-147-28.6-199.66-76.14-4.16-3.76-.4-8.86,4.56-5.9,56.94,33,127.16,53,199.8,53,49,0,102.85-10.2,152.4-31.15C451.08,351.85,457.39,360.05,450.14,365.42Z" fill="#f90" fill-rule="evenodd"/><path d="M468.53,344.47c-5.64-7.25-37.33-3.49-51.69-1.75-4.3.54-5-3.22-1.08-6C441,319,482.5,324.06,487.33,330s-1.34,47.53-25,67.4c-3.63,3.09-7.12,1.48-5.51-2.55C462.22,381.53,474.17,351.59,468.53,344.47Z" fill="#f90" fill-rule="evenodd"/><path d="M198.91,261.62a40.58,40.58,0,0,0,1.48,11.95,71,71,0,0,0,4.3,9.67,5.87,5.87,0,0,1,.94,3.09c0,1.34-.81,2.69-2.56,4L194.62,296a6.5,6.5,0,0,1-3.5,1.21,6.2,6.2,0,0,1-4-1.88,42.78,42.78,0,0,1-4.84-6.31c-1.34-2.29-2.68-4.84-4.16-7.93q-15.71,18.54-39.48,18.53c-11.27,0-20.27-3.22-26.85-9.66s-9.94-15-9.94-25.79c0-11.41,4-20.67,12.22-27.66S133.12,226,147,226a105,105,0,0,1,14.23,1.08c5,.67,10.07,1.74,15.44,2.95v-9.8c0-10.21-2.15-17.32-6.31-21.49s-11.54-6.17-21.88-6.17a61.08,61.08,0,0,0-14.51,1.74,107.56,107.56,0,0,0-14.5,4.57,36.9,36.9,0,0,1-4.7,1.74,8.25,8.25,0,0,1-2.14.41c-1.88,0-2.82-1.35-2.82-4.17v-6.57c0-2.15.26-3.76.94-4.7a10,10,0,0,1,3.76-2.82,76.79,76.79,0,0,1,16.91-6.05,81.65,81.65,0,0,1,20.95-2.55c16,0,27.66,3.63,35.18,10.88s11.14,18.26,11.14,33v43.5ZM144.4,282a43.57,43.57,0,0,0,13.83-2.41A30,30,0,0,0,171,271a21.35,21.35,0,0,0,4.57-8.59,48.5,48.5,0,0,0,1.34-11.68v-5.64a110.12,110.12,0,0,0-12.35-2.28,100.68,100.68,0,0,0-12.62-.81c-9,0-15.58,1.75-20,5.37s-6.58,8.73-6.58,15.44c0,6.31,1.61,11,5,14.24S138.22,282,144.4,282Zm107.82,14.5c-2.42,0-4-.4-5.1-1.34s-2-2.68-2.82-5.23l-31.56-103.8a23.81,23.81,0,0,1-1.21-5.37c0-2.15,1.08-3.36,3.23-3.36h13.16c2.55,0,4.29.41,5.23,1.35s1.88,2.68,2.69,5.23L258.4,272.9,279.34,184c.67-2.68,1.48-4.43,2.55-5.23a9.22,9.22,0,0,1,5.37-1.35H298c2.55,0,4.29.41,5.37,1.35s2,2.68,2.55,5.23l21.21,90,23.23-90c.81-2.68,1.75-4.43,2.69-5.23a8.71,8.71,0,0,1,5.23-1.35h12.49c2.15,0,3.36,1.08,3.36,3.36a14,14,0,0,1-.27,2.15,18.47,18.47,0,0,1-.94,3.36L340.57,290.09q-1.21,4-2.82,5.24a8.62,8.62,0,0,1-5.1,1.34H321.1c-2.55,0-4.3-.4-5.37-1.34s-2-2.69-2.55-5.37l-20.81-86.61-20.68,86.47c-.67,2.69-1.48,4.43-2.55,5.37s-3,1.34-5.37,1.34Zm172.54,3.63a88.93,88.93,0,0,1-20.68-2.42c-6.71-1.61-11.95-3.35-15.44-5.37-2.15-1.21-3.63-2.55-4.16-3.76a9.44,9.44,0,0,1-.81-3.76V278c0-2.81,1.08-4.16,3.09-4.16a7.59,7.59,0,0,1,2.42.41c.8.26,2,.8,3.35,1.34a73.9,73.9,0,0,0,14.77,4.7,81,81,0,0,0,16,1.61c8.46,0,15-1.48,19.61-4.43a14.48,14.48,0,0,0,7-12.76,13.07,13.07,0,0,0-3.63-9.4c-2.41-2.55-7-4.83-13.56-7l-19.47-6c-9.8-3.09-17-7.66-21.48-13.7A32,32,0,0,1,385,209.12a29.84,29.84,0,0,1,3.63-14.9,34.47,34.47,0,0,1,9.67-11,42.56,42.56,0,0,1,14-7,58.57,58.57,0,0,1,16.92-2.29,68,68,0,0,1,9,.54c3.08.4,5.9.94,8.72,1.48s5.24,1.34,7.66,2.15a29.76,29.76,0,0,1,5.64,2.41,11.71,11.71,0,0,1,4,3.36,7.26,7.26,0,0,1,1.2,4.43v6.31c0,2.82-1.07,4.3-3.08,4.3a14.08,14.08,0,0,1-5.11-1.61,61.41,61.41,0,0,0-25.78-5.24c-7.65,0-13.69,1.21-17.86,3.76s-6.31,6.45-6.31,11.95a12.69,12.69,0,0,0,4,9.53c2.69,2.55,7.66,5.11,14.77,7.39l19.07,6c9.67,3.09,16.65,7.39,20.81,12.89a30.42,30.42,0,0,1,6.18,18.8A34.52,34.52,0,0,1,468.67,278a36,36,0,0,1-9.81,11.82,43.3,43.3,0,0,1-14.9,7.52A63.82,63.82,0,0,1,424.76,300.16Z" fill="#fff"/></svg>